<svg xmlns="http://www.w3.org/2000/svg" xmlns:xlink="http://www.w3.org/1999/xlink" style="display: none" fill="currentColor">
  <symbol id="logo" viewBox="0 0 409.6 299" fill="currentColor">
    <path d="M0 0v250h35l.7-183.3 43-.8V34.6l271.3-.8V0H0z"/><path d="M78.8 32.8c-.7 3.5-1.8 15.4 1.6 6.6 1-5.7 7.8-7.3-1.6-6.6zm13.6 0c-5.5 7.4-9 15.5-13.7 23.2-1.3 6.7-.6 12.7 3.7 3.4 3.1-8 8.4-14.9 12.3-22.4 4.4-4.2 1.4-4.5-2.3-4.2zm12.4 0c-4.3 8-8.4 15.5-13.1 23.2-4.5 5.3-7 15.4 1 7.7C96 57 100.4 50 104.4 43.4c.4-5.4 12-12.5.4-10.6zm13.8 0c-4.4 7-8 15-13.4 21.7-1.3 4.5-9.6 14.4-.5 11.2 3.4-6.7 7.7-13.8 11.7-20.3-.2-4 12.6-14.3 2.2-12.6zm12.5 0c-2.8 7.5-8.2 14-11.4 21.2-2.4 4-12 15.7-1.3 11.4 3-8.4 9.2-15.5 13.3-23.4.5-5 10.8-11-.6-9.2zm13.7 0c-4.2 7-8 14.1-12.1 21.2-1 4.8-12.8 14.5-2 12.2 5.2-7.5 8-15.7 13.7-22.8-.4-5.5 12-12.4.4-10.6zm13.6 0c-5.5 7.4-9 15.5-13.7 23.2-4.4 5.2-8.2 15.5 1.4 7.4 2.8-7.6 8.3-14.1 11.6-21.4.8-4 10.5-10.7.7-9.2zm12.5 0c-3.2 8.2-9.2 15.3-13.2 23.2-4.5 5.3-7 15.4 1 7.7 3.4-6.7 7.7-13.8 11.7-20.3.4-5.4 12-12.5.5-10.6zm13.7 0c-3.8 6.3-7.7 13.5-11.6 19.7-1.3 4.5-12.4 16.4-2.3 13.2 4-7.4 8.1-15.2 13.4-22.3.2-4 9.9-12.4.5-10.6zm12.5 0c-2.8 7.5-8.2 14-11.4 21.2-2.3 4-12 15.7-1.3 11.4 4.3-8.1 8.5-15.6 13.3-23.4.5-5 10.8-11-.6-9.2zm13.7 0c-3.8 8-9.5 15.2-13.1 23.2-4.7 4.5-8.3 15-.5 8.5 5.4-7.1 8.8-15 13.5-22.5.8-5 10.8-10.9.1-9.2zm13.7 0c-4.9 7-8.5 15-13.5 21.8-3 5.7-9.8 17.2 1 8.8 2.9-7.6 8.4-14.1 11.7-21.4.7-3.9 10.4-10.7.8-9.2zm12.4 0c-3.3 7.8-8.4 14.7-12.2 22.2-5 5.1-8.7 16.8 0 8.7 4-7.4 8.1-15.2 13.4-22.3.9-5.2 8.8-10.2-1.2-8.6zm13.7 0c-3.8 6.3-7.7 13.5-11.6 19.7-.6 5-13.5 16-2.4 13.7 3.8-7.1 8-14.1 12-21.2 1-3.5 11.7-14.5 2-12.2zm13.8 0c-5.3 7.4-9.7 15.3-13.7 23-5.3 4-7.7 15.4 0 8.4 5.2-7.5 8-15.7 13.7-22.8-.6-4.3 9.5-10.3 0-8.6zm12.4 0c-3.8 8-9.5 15.2-13.1 23.2-4.7 4.5-8.3 15-.5 8.5 5.4-7.1 8.8-15 13.5-22.5.8-5 10.8-10.9.1-9.2zm13.7 0c-5.3 6.8-7.8 15-13.3 21.7-3.3 5.6-10 17.4.9 9 3.2-8 8.3-15 12.6-22.5 1.4-3.4 8.3-9.8-.2-8.2zm12.4 0c-3.3 7.8-8.4 14.7-12.2 22.2-3.3 3.8-9.4 15.5-.4 10 3.7-7.6 8.4-14.6 12.4-22 1.5-4.8 10.9-12.3.2-10.2zm14 0c-4.3 6.9-8.7 14-12.2 21-2.3 4.3-12 15.6-2 12 4.8-7.3 8-15.4 13.4-22.4 0-3.8 9.8-12.3.7-10.6zm13.5 0c-5.3 7.4-9.7 15.3-13.7 23-5.3 4-7.7 15.4 0 8.4 5.2-7.5 8-15.7 13.7-22.8-.6-4.3 9.5-10.3 0-8.6zm12.4 0c-4.3 8-8.4 15.5-13.1 23.2-4.7 4.5-8.3 15-.5 8.5 5.4-7 8.6-15 13.5-22.3 1.7-5 10.7-11.2.1-9.4zm13.7 0c-5.3 6.8-7.8 15-13.3 21.7-2.9 4.8-8.7 17.3.9 9 3.7-7.9 8.5-15 12.6-22.5 1.5-3.3 8-10-.2-8.2zm12.6 0c-3.7 7.7-8.4 14.7-12.4 22.2-3.3 3.8-9.4 15.5-.4 10 3.7-7.6 8.4-14.6 12.4-22 1.4-4.6 10.9-12.3.4-10.2zm13.7 0c-4.2 6.9-8.6 14-12.1 21-2 4.4-12.3 15.2-2 12.2 4.6-7.5 8-15.5 13.4-22.6 0-3.8 9.8-12.3.7-10.6zm13.6 0c-5.5 7.3-8.8 15.5-13.7 23-3.6 6.8-9.6 12.4-8.9 20.8-.3 8 6.8-9.8 8.9-12.4 5.2-7.4 8-15.7 13.7-22.8 0-4.2 9.6-10 0-8.6zm12.4 0c-4.3 8-8.4 15.5-13.1 23.2-3.7 8-9.6 15.2-13.3 23.4-3 6.1-9.5 11.6-8.6 19.3 1.1 5.8 8.1-11.3 10.9-14.7 4.6-7.5 8-15.5 13.4-22.6 3-7.8 9.2-14 11.5-22.1-.6-1.6 1.1-6.3-.8-6.5zm.8 21.3c-3.5 8-8.5 15.2-13 22.9-3.8 7.5-9 14.4-12.2 22.4-4.1 6.6-9.6 12.8-10.6 20.7-1.4 12.5 4.5-4.3 7.1-7.6 5.7-7 8.5-15.3 13.8-22.8 3.4-6.7 7.7-13.8 11.7-20.3 3.5-5 3.5-9.3 3.2-15.3zm0 23.9c-4 8-10.2 15-13.2 23.4-5.6 7.1-8.5 15.3-13.7 22.8-2.2 6.6-9.5 12-8.9 19.7.9 9 6.3-10.5 10.3-12.5 3.7-7.8 8.5-14.9 12.6-22.4 3.9-7.6 9-14.5 12.2-22.4 1.5-2.2.3-6 .7-8.6zm0 22c-4 8-8.8 15.3-13 23-4 7.5-8.8 14.6-12.5 22.4-4 6.6-9.6 12.6-10.3 20.3-1.5 12.7 4.4-3.4 7.1-7.2 4.6-7.3 9-15.2 13.8-22.8 3.4-6.7 7.7-13.8 11.7-20.3 3.5-5 3.5-9.3 3.2-15.3zm0 24c-5 7-8.5 14.7-13 22-4.2 7.5-8.7 15.4-13.7 22.6-1.6 7.4-9.5 12.4-9 20.5-.3 10.8 6-7.5 8.8-10.1 3.9-7.6 9-14.5 12.2-22.4 5-7.2 9.5-15 13.8-22.6 1.5-3 .7-6.5.9-10zm0 22c-3.2 7.4-8.8 13.8-11.5 21.4-5.3 7-9.5 14.9-13.4 22.3-3.7 7.2-9.4 13.4-10.9 21.2-1.6 13 4.2-1.8 7.1-6.4 4-6.4 8.4-13.6 11.8-20.3 5.2-7.4 8-15.7 13.7-22.8 3.5-4.7 3.5-9.5 3.2-15.4zm0 24c-5 7-8.3 14.7-13 21.7-5.1 7.5-8 15.7-13.7 22.9-1.6 7.6-10 12.6-9 21.1-.8 10.2 5.8-8 8.5-10.3 3.7-8.2 9.6-15.4 13.3-23.4 4.7-7.8 9-15.3 13.2-23.5 1.5-2 .3-5.8.7-8.4zm0 22c-4.7 7.9-9 15.3-13.2 23.4-4 6.5-8.3 13.6-11.7 20.3-3.3 7.6-11.2 13.5-10.9 22.2 3.5 4.4 7.6-10.5 10.9-14 4.2-7.5 8.7-15.3 13.7-22.5 2.5-8 9-14 11.2-22.1V192zm0 22c-3.1 7.8-8.5 14.5-12 22-4.7 7.8-9 15.3-13.3 23.5 7.9 1.1 9.3-9.8 13-15 4.7-7 9.3-14.3 12.3-22.1V214zm0 24c-4 6.9-9.5 15.9-12 21.5 7.6 1 10.3-9.9 12-15.8V238z"/><g font-family="Barlow Condensed" font-stretch="condensed" font-weight="700" letter-spacing="0" word-spacing="0"><g font-size="262.1" style="line-height:125%"><path d="M113.6 106.4q0 .7-.5 1.2-.4.3-1 .3H86q-.6 0-.6.7v19.8q0 .6.6.6h15q.7 0 1 .5.6.4.6 1v12.2q0 .6-.5 1.1-.4.4-1 .4H86q-.7 0-.7.6v20q0 .6.6.6h26.2q.6 0 1 .5.5.3.5 1V179q0 .6-.5 1.2-.4.3-1 .3h-43q-.6 0-1.1-.3-.4-.6-.4-1.2V94.3q0-.6.4-1 .5-.5 1.1-.5h43q.6 0 1 .5.5.4.5 1v12.1zM139.6 180.5q-1.4 0-1.6-1.4l-18-84.7V94q0-1.1 1.3-1.1h16.2q1.5 0 1.6 1.4l8.7 55.1q.1.5.3.5.3 0 .4-.5l8.4-55.1q.1-1.4 1.7-1.4h15.6q1.6 0 1.3 1.6l-18 84.7q-.3 1.4-1.7 1.4h-16.2zM230 106.4q0 .7-.6 1.2-.4.3-1 .3h-26.2q-.6 0-.6.7v19.8q0 .6.6.6h15q.7 0 1 .5.6.4.6 1v12.2q0 .6-.5 1.1-.4.4-1 .4h-15q-.7 0-.7.6v20q0 .6.6.6h26.2q.6 0 1 .5.5.3.5 1V179q0 .6-.5 1.2-.4.3-1 .3h-43q-.6 0-1.1-.3-.4-.6-.4-1.2V94.3q0-.6.4-1 .5-.5 1.1-.5h43q.6 0 1 .5.5.4.5 1v12.1zM273.6 180.5q-1.4 0-1.8-1.2l-9.6-34.6q-.3-.5-.6-.5h-4.3q-.6 0-.6.6V179q0 .6-.5 1.2-.4.3-1 .3h-14.7q-.6 0-1.1-.3-.4-.6-.4-1.2V94.3q0-.6.4-1 .5-.5 1.1-.5h25.3q7 0 12.3 3.4 5.4 3.2 8.3 9.2 3 6 3 13.8 0 7.4-2.9 13-2.8 5.7-7.8 8.8l-.3.4q-.2.1 0 .4l11.5 37 .1.5q0 1.2-1.4 1.2h-15zM257.3 108q-.6 0-.6.7V130q0 .6.6.6h5.6q4 0 6.3-3 2.5-3.1 2.5-8.2 0-5.3-2.5-8.3-2.4-3.2-6.3-3.2h-5.6zM311.6 180.4q-.6 0-1.1-.4-.4-.5-.4-1.1v-32.6l-.1-.7-17.6-51v-.7q0-1.1 1.3-1.1H309q1.4 0 1.8 1.2l7.7 30q.2.4.4.4.3 0 .4-.4l7.8-30q.3-1.2 1.7-1.2h15.4q.8 0 1.2.5.3.4 0 1.2l-17.6 51-.1.8V179q0 .6-.5 1.1-.4.4-1 .4h-14.7z" style="-inkscape-font-specification:'Barlow Condensed, Bold Condensed'"/></g><g font-size="220" style="line-height:125%"><path d="M67 270.7q-.5 0-.9-.3-.3-.4-.3-1v-71q0-.6.3-1 .4-.3 1-.3h12.3q.5 0 .8.4.4.3.4.8v59.2q0 .5.5.5h22.1q.6 0 .9.4.4.3.4.8v10.2q0 .6-.4 1-.3.3-.9.3H67.1zM143.6 270.7q-1.3 0-1.4-1.1l-1.7-10.1q0-.6-.6-.6h-13.4q-.6 0-.6.6l-1.7 10q0 1.2-1.4 1.2h-12.3q-1.3 0-1-1.4l15.5-71q.2-1.2 1.3-1.2h14.2q1.2 0 1.4 1.1l15.4 71.1v.5q0 1-1.1 1h-12.6zM128 247q0 .6.4.6h9.5q.5 0 .4-.6l-5-28.7q0-.3-.2-.3-.3 0-.4.3L128 247zM171.5 270.6q-.5 0-1-.3-.2-.4-.2-1V242l-.1-.6-14.8-42.9v-.5q0-1 1-1h13q1.2 0 1.5 1.1l6.5 25.2q.1.3.3.3.3 0 .4-.3l6.5-25.2q.3-1 1.5-1H199q.6 0 1 .4.3.3 0 1l-14.8 42.9V269.3q0 .6-.5 1-.3.3-.9.3h-12.3zM225.1 271.6q-9.7 0-15.5-5.7-5.7-5.7-5.7-15.2v-33.6q0-9.5 5.7-15.2 5.8-5.7 15.5-5.7t15.5 5.7q5.9 5.7 5.9 15.2v33.6q0 9.5-6 15.2-5.7 5.7-15.4 5.7zm0-12.8q3 0 4.7-2 1.8-2 1.8-5.4v-35q0-3.3-1.8-5.3-1.7-2.1-4.7-2.1t-4.7 2q-1.7 2-1.7 5.4v35q0 3.3 1.7 5.4 1.8 2 4.7 2zM275.3 271.6q-9.5 0-15.3-6-5.7-6-5.7-15.8v-51.5q0-.5.3-.8.5-.4 1-.4h12.3q.5 0 .8.4.5.3.5.8v53q0 3.3 1.6 5.4 1.7 2.1 4.5 2.1 2.7 0 4.3-2 1.7-2.2 1.7-5.6v-52.9q0-.5.3-.8.4-.4 1-.4h12.2q.6 0 .9.4.4.3.4.8v51.5q0 9.9-5.8 15.9-5.7 5.9-15 5.9zM345.8 197q.5 0 .8.5.5.3.5.8v10.2q0 .6-.5 1-.3.3-.8.3h-13.1q-.6 0-.6.5v59.1q0 .6-.4 1-.3.3-.8.3h-12.3q-.6 0-1-.3-.3-.4-.3-1v-59q0-.6-.5-.6H304q-.5 0-1-.3-.2-.4-.2-1v-10.2q0-.5.3-.8.4-.4 1-.4h41.6z" style="-inkscape-font-specification:'Barlow Condensed, Bold Condensed'"/></g></g><path fill="none" stroke="currentColor" stroke-linecap="round" stroke-width="8.7" d="M38 68h331.4v226.6H38z"/>
  </symbol>
  <symbol id="icon-external" viewBox="0 0 32 32" stroke-width="6">
    <path d="M3,29 29,3 M10,3 29,3 29,22"/>
  </symbol>
  <symbol id="icon-warning" viewBox="0 0 32 32" stroke-linejoin="round" stroke-linecap="round">
    <path d="M16,3 29,29 3,29z M16,14 16,19 M16,24 16,24"/>
  </symbol>
  <symbol id="icon-info" viewBox="0 0 32 32" stroke-linejoin="round" stroke-linecap="round">
    <circle fill="none" r="14" cx="16" cy="16"/>
    <path d="M16,10 16,10 M16,16 16,22"/>
  </symbol>
  <symbol id="icon-tick" viewBox="0 0 32 32">
    <path d="M3,18 15,26 27,3"/>
  </symbol>
  <symbol id="icon-triangle-right" viewBox="0 0 32 32">
    <path fill="currentColor" d="M6,6 26,16 6,26z"/>
  </symbol>
  <symbol id="icon-rss" viewBox="0 0 32 32">
    <circle cx="5" cy="27" r="5" fill="currentColor" stroke="none"/>
    <circle cx="0" cy="32" r="18" stroke-width="7"/>
    <circle cx="0" cy="32" r="28" stroke-width="7"/>
  </symbol>
  <symbol id="icon-download" viewBox="0 0 32 32">
    <path d="M2,20 2,30 30,30 30,20 M16,2 16,20 M8,14 16,22 24,14"/>
  </symbol>
  <symbol id="icon-clock" viewBox="0 0 32 32">
    <circle cx="16" cy="16" r="14"/>
    <path d="M16,7 16,16 25,18"/>
  </symbol>
  <symbol id="icon-avatar" viewBox="0 0 32 32">
    <circle cx="16" cy="8" r="6"/>
    <rect x="6" y="19" width="20" height="16" fill="currentColor" rx="4"/>
  </symbol>
  <symbol id="icon-arrow-down" viewBox="0 0 32 32">
    <path d="M16,3 16,29 M6,20 16,29 26,20"/>
  </symbol>
  <symbol id="icon-arrow-left" viewBox="0 0 32 32">
    <path d="M3,16 29,16 M12,6 3,16 12,26"/>
  </symbol>
  <symbol id="icon-arrow-right" viewBox="0 0 32 32">
    <path d="M3,16 29,16 M20,6 29,16 20,26"/>
  </symbol>
  <symbol id="icon-eye" viewBox="0 0 32 32" stroke-linecap="round">
    <path d="M4,16 C9,28 23,28 28,16" stroke-width="3"/>
    <path d="M4,16 C9,4 23,4 28,16" stroke-width="3"/>
    <circle cx="16" cy="16" r="4" stroke-width="5"/>
  </symbol>
  <symbol id="icon-quote-left" viewBox="0 0 32 32" stroke-width="0">
    <g transform="translate(0 -1020.4)">
      <path style="fill:currentColor" d="m7.238 1043c-2.6173-.5198-4.4159-2.1063-5.4929-4.8452-.47361-2.1283-.82335-4.3228-.22329-6.6661.78609-2.8821 1.6401-4.4166 3.5072-6.3021 2.3362-2.359 4.2624-3.2345 8.0404-3.6546l1.6938-.1884.60519.6487c.33285.3569.57728.6767.54317.711-.03411.034-.56955.1328-1.1899.2194-3.1891.4452-5.5089 1.4167-7.1375 2.989-.94312.9105-1.9488 2.3231-1.9488 2.7373 0 .092.37969.036.92305-.1321.62571-.1948 1.3704-.2868 2.3118-.2857 2.6426 0 4.0668.7622 6.2261 3.3182l.43546.5156.48638-1.3492c.71397-1.9807.89656-2.3698 1.6815-3.5836 1.3897-2.149 2.4534-3.1627 4.4698-4.2595 1.2105-.6585 2.2324-.9695 4.0823-1.2426 2.1795-.3217 2.4806-.2976 3.1023.2484.29471.2587.53584.5577.53584.6645 0 .2196-.46478.3751-1.1369.3802-.90841.012-3.5185.7767-4.8509 1.4309-1.5186.7454-3.0057 2.0857-3.7506 3.3805-.59488 1.034-.55440 1.1055.43917.7778 1.2234-.4036 3.4711-.3882 4.753.033 3.0421.9987 4.9999 3.755 4.9981 7.0367-.0012 2.2286-.76973 4.0369-2.3377 5.5-1.2782 1.1926-2.328 1.687-4.2823 2.0167-.87602.1478-1.2745.1447-2.0302-.016-2.4871-.5277-3.7581-1.4275-5.0831-3.5988-.34303-.5621-.68411-1.0095-.75795-.9943-.07385.015-.39468.4587-.71297.9854-1.1429 1.8912-2.6915 3.0481-4.7321 3.5353-1.1038.2635-1.7997.2613-3.1674-.012z"/>
    </g>
  </symbol>
  <symbol id="icon-quote-right" viewBox="0 0 32 32" stroke-width="0">
     <g transform="translate(0 -1020.4)">
      <path style="fill:currentColor" d="m24.308 1021.5c2.6173.5198 4.4159 2.1063 5.4929 4.8452.47362 2.1283.82335 4.3228.22329 6.6661-.78609 2.8821-1.6401 4.4166-3.5072 6.3021-2.3362 2.359-4.2624 3.2345-8.0404 3.6546l-1.6938.1884-.60519-.6487c-.33285-.3569-.57728-.6767-.54317-.711.03411-.034.56955-.1328 1.1899-.2194 3.1891-.4452 5.5089-1.4167 7.1375-2.989.94312-.9105 1.9488-2.3231 1.9488-2.7373 0-.092-.37969-.036-.92305.1321-.62571.1948-1.3704.2868-2.3118.2857-2.6426 0-4.0668-.7622-6.2261-3.3182l-.43546-.5156-.48638 1.3492c-.71397 1.9807-.89656 2.3698-1.6815 3.5836-1.3897 2.149-2.4534 3.1627-4.4698 4.2595-1.2105.6585-2.2324.9695-4.0823 1.2426-2.1795.3217-2.4806.2976-3.1023-.2484-.29471-.2587-.53584-.5577-.53584-.6645 0-.2196.46478-.3751 1.1369-.3802.90841-.012 3.5185-.7767 4.8509-1.4309 1.5186-.7454 3.0057-2.0857 3.7506-3.3805.59488-1.034.55440-1.1055-.43917-.7778-1.2234.4036-3.4711.3882-4.753-.033-3.0421-.9987-4.9999-3.755-4.9981-7.0367.0012-2.2286.76973-4.0369 2.3377-5.5 1.2782-1.1926 2.328-1.687 4.2823-2.0167.87602-.1478 1.2745-.1447 2.0302.016 2.4871.5277 3.7581 1.4275 5.0831 3.5988.34303.5621.68411 1.0095.75795.9943.07385-.015.39468-.4587.71297-.9854 1.1429-1.8912 2.6915-3.0481 4.7321-3.5353 1.1038-.2635 1.7997-.2613 3.1674.012z"/>
    </g>
  </symbol>
</svg>