<svg xmlns="http://www.w3.org/2000/svg" fill="none" viewBox="0 0 1360 334"><path fill="#FCCD26" d="M1203.5 57.495c15.88 0 28.75-12.87 28.75-28.748C1232.25 12.871 1219.38 0 1203.5 0c-15.87 0-28.74 12.87-28.74 28.747s12.87 28.748 28.74 28.748Z"/><path fill="#FCCD26" d="M1047.01 57.495V327.65h84.9V151.663c22.77 13.894 35.12 41.295 35.12 77.959v98.028h72.94v-98.028c0-37.05 11.97-64.065 35.12-78.345V327.65H1360V57.495h-32.03c-53.65 0-95.33 20.068-124.27 59.434-29.34-39.752-70.63-59.434-124.66-59.434h-32.03Z"/><path fill="#FCCD26" fill-rule="evenodd" d="M572.657 333.054c-83.362 0-144.726-59.434-144.726-140.481S489.295 52.092 572.657 52.092c83.363 0 144.727 59.434 144.727 140.481S656.02 333.054 572.657 333.054Zm-57.504-140.481c0 34.348 24.314 59.82 57.504 59.82 33.191 0 57.505-25.472 57.505-59.82 0-34.349-24.314-59.82-57.505-59.82-33.19 0-57.504 25.471-57.504 59.82ZM732.833 192.573c0 81.047 61.364 140.481 144.727 140.481 83.362 0 144.73-59.434 144.73-140.481S960.922 52.092 877.56 52.092c-83.363 0-144.727 59.434-144.727 140.481Zm144.727 59.82c-33.191 0-57.505-25.472-57.505-59.82 0-34.349 24.314-59.82 57.505-59.82 33.19 0 57.504 25.471 57.504 59.82 0 34.348-24.314 59.82-57.504 59.82Z" clip-rule="evenodd"/><path fill="#FCCD26" d="M244.603 327.65V57.495h84.906V253.55h85.292v74.099H244.603Z"/><path fill="#FCCD26" fill-rule="evenodd" d="M0 57.495V327.65h120.412c57.504 0 96.484-30.489 96.484-75.643 0-32.805-18.911-55.189-49.786-62.136 24.314-8.105 38.98-29.331 38.98-59.048 0-43.997-36.278-73.328-90.695-73.328H0Zm100.729 208.02H84.906v-47.857h15.823c15.823 0 26.244 9.649 26.244 23.543 0 14.279-9.649 24.314-26.244 24.314Zm-2.701-101.116H84.906v-45.54H97.64c14.666 0 23.929 9.262 23.929 22.77s-8.877 22.77-23.542 22.77Z" clip-rule="evenodd"/></svg>