<svg aria-hidden="true" focusable="false" xmlns="http://www.w3.org/2000/svg" fill="none" viewBox="0 0 1023 362"><path stroke="currentColor" d="M572.658 361.15c-83.101 0-144.226-59.224-144.226-139.981 0-80.756 61.125-139.98 144.226-139.98s144.226 59.224 144.226 139.98c0 80.757-61.125 139.981-144.226 139.981Zm-58.005-139.981c0 34.605 24.519 60.321 58.005 60.321 33.486 0 58.005-25.716 58.005-60.321 0-34.604-24.519-60.32-58.005-60.32-33.486 0-58.005 25.716-58.005 60.32ZM877.56 361.15c-83.1 0-144.226-59.224-144.226-139.981 0-80.756 61.126-139.98 144.226-139.98 83.101 0 144.23 59.224 144.23 139.98 0 80.757-61.129 139.981-144.23 139.981Zm-58.004-139.981c0 34.605 24.518 60.321 58.004 60.321s58.005-25.716 58.005-60.321c0-34.604-24.519-60.32-58.005-60.32-33.486 0-58.004 25.716-58.004 60.32ZM329.51 282.647h84.792v73.1H245.104V86.592h83.906v196.055h.5ZM120.412 355.747H.5V86.592h114.895c27.123 0 49.677 7.31 65.44 20.054 15.753 12.736 24.755 30.925 24.755 52.774 0 29.531-14.555 50.546-38.637 58.574l-1.704.567 1.752.395c15.345 3.452 27.687 10.733 36.193 21.198 8.505 10.465 13.202 24.146 13.202 40.45 0 22.419-9.67 41.186-26.486 54.361-16.825 13.182-40.829 20.782-69.498 20.782Zm-36.006-61.636v.5h16.323c8.399 0 15.094-2.54 19.691-6.94 4.599-4.402 7.053-10.618 7.053-17.874 0-7.078-2.658-13.102-7.352-17.351-4.691-4.247-11.379-6.691-19.392-6.691H84.406v48.356Zm0-101.115v.5h13.622c7.44 0 13.46-2.351 17.622-6.464 4.162-4.112 6.42-9.941 6.42-16.806 0-6.872-2.358-12.7-6.617-16.811-4.258-4.108-10.372-6.459-17.811-6.459H84.406v46.04Z"/><path stroke="currentColor" d="M572.658 321.15c-83.101 0-144.226-59.224-144.226-139.981 0-80.756 61.125-139.98 144.226-139.98s144.226 59.224 144.226 139.98c0 80.757-61.125 139.981-144.226 139.981Zm-58.005-139.981c0 34.605 24.519 60.321 58.005 60.321 33.486 0 58.005-25.716 58.005-60.321 0-34.604-24.519-60.32-58.005-60.32-33.486 0-58.005 25.716-58.005 60.32ZM877.56 321.15c-83.1 0-144.226-59.224-144.226-139.981 0-80.756 61.126-139.98 144.226-139.98 83.101 0 144.23 59.224 144.23 139.98 0 80.757-61.129 139.981-144.23 139.981Zm-58.004-139.981c0 34.605 24.518 60.321 58.004 60.321s58.005-25.716 58.005-60.321c0-34.604-24.519-60.32-58.005-60.32-33.486 0-58.004 25.716-58.004 60.32ZM329.51 242.647h84.792v73.1H245.104V46.592h83.906v196.055h.5ZM120.412 315.747H.5V46.592h114.895c27.123 0 49.677 7.31 65.44 20.054 15.753 12.736 24.755 30.925 24.755 52.774 0 29.531-14.555 50.546-38.637 58.574l-1.704.567 1.752.395c15.345 3.452 27.687 10.733 36.193 21.198 8.505 10.465 13.202 24.146 13.202 40.45 0 22.419-9.67 41.186-26.486 54.361-16.825 13.182-40.829 20.782-69.498 20.782Zm-36.006-61.636v.5h16.323c8.399 0 15.094-2.54 19.691-6.94 4.599-4.402 7.053-10.618 7.053-17.874 0-7.078-2.658-13.102-7.352-17.351-4.691-4.247-11.379-6.691-19.392-6.691H84.406v48.356Zm0-101.115v.5h13.622c7.44 0 13.46-2.351 17.622-6.464 4.162-4.112 6.42-9.941 6.42-16.806 0-6.872-2.358-12.7-6.617-16.811-4.258-4.108-10.372-6.459-17.811-6.459H84.406v46.04Z"/><path fill="currentColor" d="M572.658 281.65c-83.362 0-144.726-59.434-144.726-140.481 0-81.046 61.364-140.48 144.726-140.48s144.726 59.434 144.726 140.48c0 81.047-61.364 140.481-144.726 140.481Zm-57.505-140.481c0 34.349 24.314 59.821 57.505 59.821s57.505-25.472 57.505-59.821c0-34.348-24.314-59.82-57.505-59.82s-57.505 25.472-57.505 59.82ZM877.56 281.65c-83.362 0-144.726-59.434-144.726-140.481 0-81.046 61.364-140.48 144.726-140.48 83.363 0 144.73 59.434 144.73 140.48 0 81.047-61.367 140.481-144.73 140.481Zm-57.504-140.481c0 34.349 24.314 59.821 57.504 59.821 33.191 0 57.505-25.472 57.505-59.821 0-34.348-24.314-59.82-57.505-59.82-33.19 0-57.504 25.472-57.504 59.82ZM244.604 276.248V6.092h84.906v196.056h85.292v74.1H244.604ZM0 276.248V6.092h115.395c54.417 0 90.695 29.331 90.695 73.328 0 29.717-14.665 50.943-38.979 59.048 30.875 6.947 49.785 29.331 49.785 62.136 0 45.155-38.979 75.644-96.484 75.644H0Zm84.906-62.136h15.823c16.596 0 26.244-10.035 26.244-24.314 0-13.894-10.42-23.542-26.244-23.542H84.906v47.856Zm0-101.116h13.122c14.666 0 23.542-9.262 23.542-22.77s-9.262-22.77-23.928-22.77H84.906v45.54Z"/></svg>