<svg aria-hidden="true" focusable="false" xmlns="http://www.w3.org/2000/svg" fill="none" viewBox="0 0 1023 328"><path fill="currentColor" d="M572.658 327.65c-83.362 0-144.726-59.434-144.726-140.481 0-81.046 61.364-140.48 144.726-140.48s144.726 59.434 144.726 140.48c0 81.047-61.364 140.481-144.726 140.481Zm-57.505-140.481c0 34.349 24.314 59.821 57.505 59.821s57.505-25.472 57.505-59.821c0-34.348-24.314-59.82-57.505-59.82s-57.505 25.472-57.505 59.82ZM877.56 327.65c-83.362 0-144.726-59.434-144.726-140.481 0-81.046 61.364-140.48 144.726-140.48 83.363 0 144.73 59.434 144.73 140.48 0 81.047-61.367 140.481-144.73 140.481Zm-57.504-140.481c0 34.349 24.314 59.821 57.504 59.821 33.191 0 57.505-25.472 57.505-59.821 0-34.348-24.314-59.82-57.505-59.82-33.19 0-57.504 25.472-57.504 59.82ZM244.604 322.247V52.092h84.906v196.055h85.292v74.1H244.604ZM0 322.247V52.092h115.395c54.417 0 90.695 29.33 90.695 73.328 0 29.717-14.665 50.943-38.979 59.048 30.875 6.947 49.785 29.331 49.785 62.136 0 45.154-38.979 75.643-96.484 75.643H0Zm84.906-62.136h15.823c16.596 0 26.244-10.034 26.244-24.314 0-13.893-10.42-23.542-26.244-23.542H84.906v47.856Zm0-101.115h13.122c14.666 0 23.542-9.262 23.542-22.77s-9.262-22.77-23.928-22.77H84.906v45.54Z"/></svg>
