<svg aria-label="Bloom" role="img" width="1360" height="414" viewBox="0 0 1360 414" fill="none" xmlns="http://www.w3.org/2000/svg">
<path d="M1327.97 137.995H1359.5V407.15H1275.59V231.277V230.382L1274.83 230.852C1251.48 245.255 1239.47 272.472 1239.47 309.622V407.15H1167.53V309.622C1167.53 272.857 1155.14 245.253 1132.17 231.236L1131.41 230.772V231.663V407.15H1047.51V137.995H1079.04C1132.93 137.995 1174.07 157.615 1203.29 197.226L1203.7 197.772L1204.1 197.225C1232.94 158 1274.47 137.995 1327.97 137.995Z" stroke="#2D2816"/>
<path d="M1231.75 108.747C1231.75 124.348 1219.1 136.995 1203.5 136.995C1187.9 136.995 1175.26 124.348 1175.26 108.747C1175.26 93.1468 1187.9 80.5 1203.5 80.5C1219.1 80.5 1231.75 93.1468 1231.75 108.747Z" stroke="#2D2816"/>
<path d="M572.658 412.554C489.557 412.554 428.432 353.329 428.432 272.573C428.432 191.816 489.557 132.592 572.658 132.592C655.759 132.592 716.884 191.816 716.884 272.573C716.884 353.329 655.759 412.554 572.658 412.554ZM514.653 272.573C514.653 307.178 539.172 332.893 572.658 332.893C606.144 332.893 630.663 307.178 630.663 272.573C630.663 237.968 606.144 212.253 572.658 212.253C539.172 212.253 514.653 237.968 514.653 272.573Z" stroke="#2D2816"/>
<path d="M877.56 412.554C794.46 412.554 733.334 353.329 733.334 272.573C733.334 191.816 794.46 132.592 877.56 132.592C960.661 132.592 1021.79 191.816 1021.79 272.573C1021.79 353.329 960.661 412.554 877.56 412.554ZM819.556 272.573C819.556 307.178 844.074 332.893 877.56 332.893C911.046 332.893 935.565 307.178 935.565 272.573C935.565 237.968 911.046 212.253 877.56 212.253C844.074 212.253 819.556 237.968 819.556 272.573Z" stroke="#2D2816"/>
<path d="M329.51 334.051H414.302V407.15H245.104V137.995H329.01V333.551V334.051H329.51Z" stroke="#2D2816"/>
<path d="M120.412 407.15H0.5V137.995H115.395C142.518 137.995 165.072 145.304 180.835 158.049C196.588 170.785 205.59 188.974 205.59 210.823C205.59 240.354 191.035 261.369 166.953 269.397L165.249 269.965L167.001 270.359C182.346 273.811 194.688 281.092 203.194 291.558C211.699 302.022 216.396 315.703 216.396 332.007C216.396 354.426 206.726 373.193 189.91 386.368C173.085 399.55 149.081 407.15 120.412 407.15ZM84.4061 345.515V346.015H84.9061H100.729C109.128 346.015 115.823 343.474 120.42 339.074C125.019 334.672 127.473 328.456 127.473 321.201C127.473 314.122 124.815 308.098 120.121 303.849C115.43 299.602 108.742 297.158 100.729 297.158H84.9061H84.4061V297.658V345.515ZM84.4061 244.399V244.899H84.9061H98.0279C105.468 244.899 111.488 242.548 115.65 238.435C119.812 234.323 122.07 228.494 122.07 221.629C122.07 214.757 119.712 208.929 115.453 204.819C111.195 200.71 105.081 198.359 97.642 198.359H84.9061H84.4061V198.859V244.399Z" stroke="#2D2816"/>
<path d="M1327.97 97.9946H1359.5V367.15H1275.59V191.277V190.382L1274.83 190.852C1251.48 205.255 1239.47 232.472 1239.47 269.622V367.15H1167.53V269.622C1167.53 232.857 1155.14 205.253 1132.17 191.236L1131.41 190.772V191.663V367.15H1047.51V97.9946H1079.04C1132.93 97.9946 1174.07 117.615 1203.29 157.226L1203.7 157.772L1204.1 157.225C1232.94 118 1274.47 97.9946 1327.97 97.9946Z" stroke="#2D2816"/>
<path d="M1231.75 68.7474C1231.75 84.348 1219.1 96.9948 1203.5 96.9948C1187.9 96.9948 1175.26 84.348 1175.26 68.7474C1175.26 53.1468 1187.9 40.5 1203.5 40.5C1219.1 40.5 1231.75 53.1468 1231.75 68.7474Z" stroke="#2D2816"/>
<path d="M572.658 372.554C489.557 372.554 428.432 313.329 428.432 232.573C428.432 151.816 489.557 92.5918 572.658 92.5918C655.759 92.5918 716.884 151.816 716.884 232.573C716.884 313.329 655.759 372.554 572.658 372.554ZM514.653 232.573C514.653 267.178 539.172 292.893 572.658 292.893C606.144 292.893 630.663 267.178 630.663 232.573C630.663 197.968 606.144 172.253 572.658 172.253C539.172 172.253 514.653 197.968 514.653 232.573Z" stroke="#2D2816"/>
<path d="M877.56 372.554C794.46 372.554 733.334 313.329 733.334 232.573C733.334 151.816 794.46 92.5918 877.56 92.5918C960.661 92.5918 1021.79 151.816 1021.79 232.573C1021.79 313.329 960.661 372.554 877.56 372.554ZM819.556 232.573C819.556 267.178 844.074 292.893 877.56 292.893C911.046 292.893 935.565 267.178 935.565 232.573C935.565 197.968 911.046 172.253 877.56 172.253C844.074 172.253 819.556 197.968 819.556 232.573Z" stroke="#2D2816"/>
<path d="M329.51 294.051H414.302V367.15H245.104V97.9946H329.01V293.551V294.051H329.51Z" stroke="#2D2816"/>
<path d="M120.412 367.15H0.5V97.9946H115.395C142.518 97.9946 165.072 105.304 180.835 118.049C196.588 130.785 205.59 148.974 205.59 170.823C205.59 200.354 191.035 221.369 166.953 229.397L165.249 229.965L167.001 230.359C182.346 233.811 194.688 241.092 203.194 251.558C211.699 262.022 216.396 275.703 216.396 292.007C216.396 314.426 206.726 333.193 189.91 346.368C173.085 359.55 149.081 367.15 120.412 367.15ZM84.4061 305.515V306.015H84.9061H100.729C109.128 306.015 115.823 303.474 120.42 299.074C125.019 294.672 127.473 288.456 127.473 281.201C127.473 274.122 124.815 268.098 120.121 263.849C115.43 259.602 108.742 257.158 100.729 257.158H84.9061H84.4061V257.658V305.515ZM84.4061 204.399V204.899H84.9061H98.0279C105.468 204.899 111.488 202.548 115.65 198.435C119.812 194.323 122.07 188.494 122.07 181.629C122.07 174.757 119.712 168.929 115.453 164.819C111.195 160.71 105.081 158.359 97.642 158.359H84.9061H84.4061V158.859V204.399Z" stroke="#2D2816"/>
<path d="M1047.01 327.65V57.4946H1079.04C1133.07 57.4946 1174.37 77.1774 1203.7 116.929C1232.64 77.5634 1274.32 57.4946 1327.97 57.4946H1360V327.65H1275.09V151.277C1251.94 165.557 1239.97 192.572 1239.97 229.622V327.65H1167.03V229.622C1167.03 192.958 1154.68 165.557 1131.91 151.663V327.65H1047.01Z" fill="#2D2816"/>
<circle cx="1203.5" cy="28.7474" r="28.7474" fill="#2D2816"/>
<path d="M572.658 333.054C489.296 333.054 427.932 273.62 427.932 192.573C427.932 111.526 489.296 52.0918 572.658 52.0918C656.02 52.0918 717.384 111.526 717.384 192.573C717.384 273.62 656.02 333.054 572.658 333.054ZM515.153 192.573C515.153 226.921 539.467 252.393 572.658 252.393C605.849 252.393 630.163 226.921 630.163 192.573C630.163 158.224 605.849 132.753 572.658 132.753C539.467 132.753 515.153 158.224 515.153 192.573Z" fill="#2D2816"/>
<path d="M877.56 333.054C794.198 333.054 732.834 273.62 732.834 192.573C732.834 111.526 794.198 52.0918 877.56 52.0918C960.923 52.0918 1022.29 111.526 1022.29 192.573C1022.29 273.62 960.923 333.054 877.56 333.054ZM820.056 192.573C820.056 226.921 844.37 252.393 877.56 252.393C910.751 252.393 935.065 226.921 935.065 192.573C935.065 158.224 910.751 132.753 877.56 132.753C844.37 132.753 820.056 158.224 820.056 192.573Z" fill="#2D2816"/>
<path d="M244.604 327.65V57.4946H329.51V253.551H414.802V327.65H244.604Z" fill="#2D2816"/>
<path d="M0 327.65V57.4946H115.395C169.812 57.4946 206.09 86.8258 206.09 130.823C206.09 160.54 191.425 181.766 167.111 189.871C197.986 196.818 216.896 219.202 216.896 252.007C216.896 297.161 177.917 327.65 120.412 327.65H0ZM84.9061 265.515H100.729C117.325 265.515 126.973 255.48 126.973 241.201C126.973 227.307 116.553 217.658 100.729 217.658H84.9061V265.515ZM84.9061 164.399H98.0279C112.694 164.399 121.57 155.137 121.57 141.629C121.57 128.121 112.308 118.859 97.642 118.859H84.9061V164.399Z" fill="#2D2816"/>
</svg>
