<svg aria-hidden="true" focusable="false" xmlns="http://www.w3.org/2000/svg" fill="none" viewBox="0 0 314 408"><path stroke="currentColor" d="M281.249 137.995h31.532V407.15h-83.906V230.382l-.762.47c-23.357 14.403-35.358 41.62-35.358 78.77v97.528h-71.942v-97.528c0-36.765-12.388-64.369-35.36-78.386l-.76-.464V407.15H.787V137.995h31.532c53.89 0 95.029 19.62 124.256 59.231l.403.546.402-.547c28.841-39.225 70.366-59.23 123.869-59.23ZM185.031 108.747c0 15.601-12.646 28.248-28.247 28.248-15.601 0-28.247-12.647-28.247-28.248 0-15.6 12.646-28.247 28.247-28.247 15.601 0 28.247 12.647 28.247 28.247Z"/><path stroke="currentColor" d="M281.249 97.995h31.532V367.15h-83.906V190.382l-.762.47c-23.357 14.403-35.358 41.62-35.358 78.77v97.528h-71.942v-97.528c0-36.765-12.388-64.369-35.36-78.386l-.76-.464V367.15H.787V97.995h31.532c53.89 0 95.029 19.62 124.256 59.231l.403.546.402-.547c28.841-39.225 70.366-59.23 123.869-59.23ZM185.031 68.747c0 15.601-12.646 28.248-28.247 28.248-15.601 0-28.247-12.647-28.247-28.248 0-15.6 12.646-28.247 28.247-28.247 15.601 0 28.247 12.647 28.247 28.247Z"/><path fill="currentColor" d="M.287 327.651V57.495h32.032c54.032 0 95.327 19.683 124.658 59.434 28.945-39.365 70.626-59.434 124.272-59.434h32.032V327.65h-84.906V151.278c-23.156 14.279-35.12 41.295-35.12 78.345v98.028h-72.942v-98.028c0-36.664-12.35-64.066-35.12-77.96v175.988H.287Z"/><circle cx="156.784" cy="28.747" r="28.747" fill="currentColor"/></svg>